<?xml version="1.0" encoding="UTF-8"?>
<!DOCTYPE svg PUBLIC "-//W3C//DTD SVG 1.1//EN" "http://www.w3.org/Graphics/SVG/1.1/DTD/svg11.dtd">
<svg xmlns="http://www.w3.org/2000/svg" version="1.1" width="1204px" height="1013px" style="shape-rendering:geometricPrecision; text-rendering:geometricPrecision; image-rendering:optimizeQuality; fill-rule:evenodd; clip-rule:evenodd" xmlns:xlink="http://www.w3.org/1999/xlink">
<g><path style="opacity:0.998" fill="#994d4b" d="M 391.5,-0.5 C 402.833,-0.5 414.167,-0.5 425.5,-0.5C 491.778,8.32069 558.112,17.8207 624.5,28C 662.72,32.5501 698.72,43.8835 732.5,62C 774.351,87.7293 797.018,125.229 800.5,174.5C 800.955,185.393 798.788,195.726 794,205.5C 777.674,236.281 752.174,254.781 717.5,261C 594.019,272.633 471.685,264.966 350.5,238C 327.787,233.232 308.62,222.399 293,205.5C 280.178,186.561 274.011,165.561 274.5,142.5C 274.954,114.768 280.454,88.1015 291,62.5C 305.243,33.9335 327.743,15.1002 358.5,6C 369.471,2.97198 380.471,0.805314 391.5,-0.5 Z"/></g>
<g><path style="opacity:0.996" fill="#40806f" d="M 792.5,285.5 C 824.243,284.343 855.243,288.509 885.5,298C 912.287,308.788 930.12,327.955 939,355.5C 947.295,385.674 949.629,416.34 946,447.5C 942.909,490.463 928.243,528.796 902,562.5C 875.388,591.89 842.222,608.724 802.5,613C 783.272,615.854 763.939,617.021 744.5,616.5C 715.471,616.099 686.471,614.932 657.5,613C 541.789,606.998 426.123,600.331 310.5,593C 283.702,590.635 258.369,583.302 234.5,571C 207.194,555.693 189.694,532.859 182,502.5C 178.769,477.093 184.769,454.093 200,433.5C 216.315,413.081 236.482,397.581 260.5,387C 348.503,350.112 439.836,325.445 534.5,313C 620.251,299.971 706.251,290.805 792.5,285.5 Z"/></g>
<g><path style="opacity:0.997" fill="#2f506f" d="M 389.5,635.5 C 467.06,636.037 544.393,640.537 621.5,649C 708.243,659.853 792.91,679.52 875.5,708C 925.065,725.282 971.398,748.615 1014.5,778C 1055.35,805.852 1086.52,842.018 1108,886.5C 1121.3,914.914 1120.63,942.914 1106,970.5C 1096.9,983.241 1084.74,991.741 1069.5,996C 1060.95,998.078 1052.28,999.412 1043.5,1000C 782.166,999.166 520.833,997.832 259.5,996C 225.3,997.02 192.3,991.354 160.5,979C 123.929,960.413 101.429,930.913 93,890.5C 84.9757,844.933 93.309,802.6 118,763.5C 154.834,709.044 205,672.544 268.5,654C 308.241,643.015 348.574,636.848 389.5,635.5 Z"/></g>
</svg>
