<?xml version="1.0" encoding="UTF-8"?>
<!DOCTYPE svg PUBLIC "-//W3C//DTD SVG 1.1//EN" "http://www.w3.org/Graphics/SVG/1.1/DTD/svg11.dtd">
<svg xmlns="http://www.w3.org/2000/svg" version="1.1" width="192px" height="188px" style="shape-rendering:geometricPrecision; text-rendering:geometricPrecision; image-rendering:optimizeQuality; fill-rule:evenodd; clip-rule:evenodd" xmlns:xlink="http://www.w3.org/1999/xlink">
<g><path style="opacity:1" fill="#9a4b4a" d="M 55.5,4.5 C 70.6078,5.34848 85.6078,7.18182 100.5,10C 113.309,10.6457 122.809,16.479 129,27.5C 132.978,39.258 129.145,47.0913 117.5,51C 100.139,53.0116 82.8056,52.6783 65.5,50C 56.6239,49.5763 48.4572,47.0763 41,42.5C 36.4444,32.9494 36.4444,23.2828 41,13.5C 44.7517,8.551 49.585,5.551 55.5,4.5 Z"/></g>
<g><path style="opacity:1" fill="#427f70" d="M 121.5,55.5 C 152.225,52.4059 163.059,65.7392 154,95.5C 151.229,103.27 146.063,108.77 138.5,112C 131.987,113.939 125.321,114.773 118.5,114.5C 92.8081,113.41 67.1414,111.91 41.5,110C 32.1922,109.106 25.3589,104.606 21,96.5C 19.557,84.9169 24.3903,77.0836 35.5,73C 45.6368,69.0655 55.9702,65.7322 66.5,63C 84.9245,60.0736 103.258,57.5736 121.5,55.5 Z"/></g>
<g><path style="opacity:1" fill="#2e506e" d="M 52.5,117.5 C 86.9946,116.26 120.328,121.76 152.5,134C 167.842,139.679 179.008,149.846 186,164.5C 188.595,172.694 186.095,178.527 178.5,182C 129.5,182.667 80.5,182.667 31.5,182C 10.7438,181.018 1.91049,170.185 5,149.5C 10.6326,135.202 20.7993,125.702 35.5,121C 41.2647,119.614 46.9314,118.448 52.5,117.5 Z"/></g>
</svg>
